<svg width="512" height="512" viewBox="0 0 512 512" fill="none" xmlns="http://www.w3.org/2000/svg">
  <defs>
    <linearGradient id="heartGradient" x1="0%" y1="0%" x2="100%" y2="100%">
      <stop offset="0%" stop-color="#FF5F6D" />
      <stop offset="100%" stop-color="#FFC371" />
    </linearGradient>
    <linearGradient id="redGradient" x1="256" y1="0" x2="256" y2="512" gradientUnits="userSpaceOnUse">
      <stop stop-color="#EF4444"/>
      <stop offset="1" stop-color="#BE123C"/>
    </linearGradient>
    <filter id="shadow" x="-10%" y="-10%" width="120%" height="120%">
      <feDropShadow dx="0" dy="4" stdDeviation="4" flood-color="#000" flood-opacity="0.15"/>
    </filter>
  </defs>
  
  <!-- Main Heart Shape -->
  <path d="M256 472C256 472 464 360 464 192C464 112 400 48 320 48C280 48 256 80 256 80C256 80 232 48 192 48C112 48 48 112 48 192C48 360 256 472 256 472Z" 
    fill="url(#redGradient)" 
    stroke="#FCD34D" 
    stroke-width="4"
    filter="url(#shadow)"
  />

  <!-- Mother Profile (Stylized) -->
  <path d="M190 120C170 120 150 140 150 170C150 200 170 210 180 230C190 250 180 280 150 310C140 320 140 330 150 340C170 360 210 380 240 380C250 380 260 375 260 360C260 340 240 320 230 310C220 300 210 280 220 260C230 240 250 220 250 180C250 140 220 120 190 120Z" 
    fill="white" 
    opacity="0.95"
  />

  <!-- Child Profile (Stylized) -->
  <path d="M290 240C270 240 260 260 260 280C260 300 270 310 280 320C290 330 310 330 320 320C330 310 330 290 320 280C310 270 310 240 290 240Z" 
    fill="white" 
    opacity="0.95"
  />
  
  <!-- Connecting Curve (Embrace) -->
  <path d="M250 380C280 380 310 360 330 330" 
    stroke="white" 
    stroke-width="8" 
    stroke-linecap="round"
  />
</svg>