<svg xmlns="http://www.w3.org/2000/svg" viewBox="0 0 100 100" fill="none">
  <defs>
    <linearGradient id="heartGrad" x1="0%" y1="0%" x2="100%" y2="100%">
      <stop offset="0%" style="stop-color:#ef4444;stop-opacity:1" />
      <stop offset="100%" style="stop-color:#f43f5e;stop-opacity:1" />
    </linearGradient>
  </defs>
  
  <!-- Heart Background -->
  <path d="M50 95 C20 75 5 55 5 35 C5 15 25 5 50 25 C75 5 95 15 95 35 C95 55 80 75 50 95 Z" 
        fill="url(#heartGrad)" stroke="#d4af37" stroke-width="2" />

  <!-- Mother and Child Silhouette (White) -->
  <path d="M48 30 
           C40 30 35 38 35 48 
           C35 55 38 60 42 65 
           C38 68 35 72 35 78 
           C35 85 50 85 50 85 
           S65 85 65 75 
           C65 70 60 65 60 65 
           S65 60 65 50 
           C65 35 58 30 48 30 
           Z
           M48 35 C52 35 55 38 55 45 C55 52 50 55 48 55 C45 55 42 50 42 45 C42 38 45 35 48 35
           M50 80 C45 80 42 76 42 72 C42 68 45 65 48 65 C52 65 55 68 55 72 C55 76 52 80 50 80" 
           fill="white"/>
</svg>